<svg xmlns="http://www.w3.org/2000/svg" version="1.2" viewBox="0 0 864.76204 663.11381" width="865" height="664">
	<style>
		.s0 { fill: #f2f2f2 } 
		.s1 { fill: #ffffff } 
		.s2 { fill: #3f3d56 } 
		.s3 { fill: #b9ff66 } 
		.s4 { fill: #a0616a } 
		.s5 { fill: #2f2e41 } 
		.s6 { fill: #e6e6e6 } 
		.s7 { fill: #ffb8b8 } 
		.s8 { fill: #ffb6b6 } 
		.s9 { opacity: .2;fill: #000000 } 
	</style>
	<g id="Layer 1">
		<path class="s0" d="m792.53 475.11l27.03-3.06q2.18-4.87 3.77-9.97 1.58-5.09 2.53-10.35 0.95-5.25 1.26-10.58 0.31-5.32-0.03-10.65c-14.69 20.71-45.77 20.38-66.43 35.16-3.19 2.32-6.11 4.99-8.71 7.97-2.6 2.97-4.85 6.23-6.73 9.7-1.87 3.48-3.34 7.16-4.39 10.96-1.06 3.81-1.68 7.72-1.86 11.66l-8.92 17.11c6.33 0.69 12.73 0.7 19.07 0.02 6.33-0.68 12.58-2.05 18.63-4.07 6.04-2.02 11.85-4.69 17.32-7.97 5.47-3.27 10.58-7.12 15.22-11.49q1.94-1.86 3.76-3.84 1.82-1.98 3.51-4.07 1.69-2.09 3.24-4.28 1.56-2.19 2.97-4.47c-10.63-3.23-21.24-7.78-21.24-7.78z"/>
		<path class="s0" d="m771.95 436.19l22.82-14.8q-0.21-5.33-1.07-10.6-0.86-5.27-2.34-10.39-1.49-5.13-3.59-10.04-2.1-4.9-4.78-9.52c-3.91 25.09-31.88 38.66-43.78 61.1-1.82 3.5-3.25 7.2-4.24 11.02-1 3.82-1.57 7.74-1.69 11.68-0.13 3.95 0.19 7.9 0.94 11.77 0.76 3.88 1.95 7.65 3.55 11.26l-0.36 19.29c5.98-2.2 11.7-5.05 17.07-8.48 5.37-3.44 10.36-7.44 14.86-11.95 4.51-4.51 8.52-9.49 11.96-14.86 3.44-5.37 6.29-11.09 8.49-17.07q0.91-2.53 1.65-5.11 0.75-2.59 1.33-5.21 0.58-2.63 1-5.28 0.41-2.66 0.66-5.33c-10.96 1.86-22.48 2.52-22.48 2.52z"/>
		<path class="s1" d="m672.85 617.29c-45.29 0-81.91-36.62-81.91-81.91 0-45.3 36.62-81.91 81.91-81.91 45.3 0 81.91 36.61 81.91 81.91 0 45.29-36.61 81.91-81.91 81.91z"/>
		<path class="s2" d="m672.85 618.29c-33.53 0-63.76-20.2-76.59-51.18-12.84-30.98-5.74-66.64 17.97-90.36 23.71-23.71 59.37-30.8 90.35-17.97 30.98 12.83 51.18 43.06 51.18 76.6-0.01 10.88-2.16 21.66-6.33 31.71-4.18 10.05-10.28 19.19-17.98 26.89-7.7 7.69-16.83 13.8-26.88 17.97-10.06 4.17-20.83 6.32-31.72 6.34zm0-163.82c-32.72 0-62.22 19.71-74.75 49.95-12.52 30.23-5.6 65.03 17.54 88.17 23.14 23.14 57.94 30.06 88.18 17.54 30.23-12.53 49.94-42.03 49.94-74.75-0.01-10.62-2.11-21.14-6.18-30.95-4.07-9.81-10.03-18.73-17.54-26.24-7.51-7.51-16.43-13.47-26.24-17.54-9.81-4.07-20.32-6.17-30.95-6.18z"/>
		<path class="s3" d="m666.72 568.11q-0.26 0-0.52-0.01-1.16-0.06-2.28-0.36-1.12-0.3-2.14-0.83-1.03-0.54-1.92-1.28-0.89-0.74-1.6-1.66l-13.69-17.59c-0.87-1.12-1.5-2.39-1.88-3.74-0.37-1.36-0.47-2.78-0.3-4.17 0.18-1.4 0.62-2.75 1.32-3.97 0.7-1.23 1.63-2.3 2.74-3.16l0.49-0.39c1.11-0.86 2.38-1.5 3.74-1.87 1.36-0.38 2.77-0.48 4.17-0.31 1.4 0.18 2.75 0.63 3.97 1.32 1.22 0.7 2.3 1.63 3.16 2.74 0.69 0.89 1.57 1.62 2.57 2.14 1 0.51 2.09 0.81 3.22 0.87 1.12 0.05 2.24-0.14 3.29-0.56 1.04-0.42 1.98-1.06 2.76-1.87l27.79-29.34c0.97-1.02 2.13-1.84 3.42-2.42 1.28-0.57 2.67-0.88 4.07-0.92 1.41-0.04 2.81 0.2 4.12 0.7 1.32 0.5 2.52 1.26 3.54 2.23l0.46 0.43c1.02 0.97 1.84 2.13 2.42 3.41 0.57 1.29 0.88 2.67 0.92 4.08 0.04 1.41-0.2 2.81-0.7 4.12-0.51 1.32-1.26 2.52-2.23 3.54l-43.13 45.53q-0.75 0.79-1.65 1.41-0.89 0.63-1.9 1.06-1 0.43-2.07 0.65-1.07 0.22-2.16 0.22z"/>
		<path class="s4" d="m630 640.05l-11.36 1.27-10.76-44.07 16.77-1.87 5.35 44.67z"/>
		<path class="s5" d="m704.84 441.91q-0.53-0.52-1.11-1.01-1.1-0.92-2.22-1.8-1.13-0.88-2.28-1.73-1.14-0.85-2.31-1.67-1.17-0.81-2.37-1.6c-3.6-2.4-7.65-4.84-12.23-7.37q-3.32-1.84-7.03-3.75-1.85-0.96-3.81-1.93-0.03-0.02-0.05-0.03-0.02-0.01-0.04-0.02-0.02-0.01-0.04-0.02-0.02-0.01-0.05-0.02l-0.37-0.2-27.57 22.76-1.96 1.54 5.08 6.26c0 0-0.44 4.98-0.43 4.98l-5.05 12.58-0.05 0.03-17.96 8.19-18.51 8.45-9.94 4.54q-1.73 0.79-3.27 1.91-1.54 1.11-2.83 2.5-1.29 1.4-2.28 3.02-0.99 1.62-1.64 3.4-0.69 1.86-0.99 3.81-0.31 1.95-0.23 3.93 0.09 1.97 0.56 3.89 0.47 1.92 1.31 3.71 0.34 0.73 0.74 1.44l4.13 25.97q0.92 5.82 2.28 11.55 1.36 5.73 3.15 11.34 1.79 5.61 3.99 11.08 2.2 5.46 4.81 10.74l6.31 24.31 0.96-0.48 14.27-7.15 3.77-1.88 0.71-16.34q0.12-2.79 0.03-5.6-0.04-1.14-0.11-2.29-0.08-1.14-0.19-2.29-0.11-1.14-0.25-2.28-0.15-1.13-0.33-2.27l-8.18-50.94q2.18-0.88 4.3-1.78 9.82-4.11 18.59-8.31c19.03-9.09 34.53-18.53 47.19-28.76q5.34-4.3 10.01-8.8 1.72-1.65 3.35-3.33 0.39-0.38 0.76-0.77 1.67-1.76 2.86-3.87 1.18-2.12 1.81-4.46 0.63-2.34 0.66-4.76 0.03-2.43-0.54-4.78-0.31-1.37-0.82-2.68-0.51-1.3-1.19-2.53-0.69-1.22-1.54-2.33-0.85-1.11-1.86-2.1z"/>
		<path class="s5" d="m629.08 632.34l-12.3 1.36-1.93 0.21 1.26 7.3-14.29 13.96c-0.71 0.69-1.18 1.59-1.34 2.56-0.16 0.98 0 1.98 0.45 2.86 0.44 0.88 1.16 1.59 2.05 2.03 0.88 0.45 1.88 0.59 2.85 0.43l20.3-3.48 2.25-7.82 2.61 6.99 7.64-1.31-6.56-25.42z"/>
		<path class="s4" d="m640.78 379.47l10.53-11.16-14.85-32.5-2.21-11.42c-0.29-1.48-0.96-2.86-1.95-4-0.98-1.15-2.26-2.01-3.68-2.51-1.43-0.49-2.96-0.61-4.44-0.33-1.49 0.28-2.87 0.95-4.02 1.93q-1.27 1.09-2.05 2.58-0.77 1.5-0.93 3.17-0.15 1.67 0.33 3.28 0.48 1.6 1.53 2.92l8.2 10.25z"/>
		<path class="s6" d="m651.31 363.31l-12 12 2.3 17.54q0.55 1.72 1.51 3.24 0.97 1.52 2.29 2.75 1.32 1.22 2.91 2.07 1.6 0.85 3.35 1.27 2.16 0.51 4.38 0.33 2.21-0.18 4.26-1.04 2.05-0.86 3.73-2.32 1.68-1.46 2.82-3.36l27-46.27c0.94-1.58 1.58-3.32 1.86-5.14 0.28-1.82 0.21-3.68-0.22-5.47-0.42-1.79-1.19-3.49-2.26-4.99-1.07-1.49-2.42-2.77-3.98-3.76-1.69-1.07-3.58-1.77-5.56-2.06-1.98-0.29-4-0.16-5.92 0.39-1.92 0.54-3.71 1.48-5.25 2.76-1.54 1.28-2.79 2.87-3.67 4.66l-16.47 35.11z"/>
		<path class="s4" d="m639.22 540.38q-0.93 0.95-1.87 1.88-1.88 1.88-3.79 3.71-0.96 0.92-1.93 1.84l0.01 0.02-0.05 0.02-0.01 0.01-1.07 0.55-2.65-3.92-1.23-1.8-1.73-2.55-3.17-4.67-16.71-24.59 14.98-7.73 1.18 2.3h0.01l0.58 1.13 10.96 21.23 2.24 4.34 0.07 0.13 1.34 2.59 1.16 2.25 1.29 2.51z"/>
		<path class="s5" d="m636.13 532.41l-10.43 6.66-1.64 1.04 4.36 6-6.64 18.84c-0.33 0.93-0.36 1.94-0.07 2.89 0.29 0.94 0.87 1.77 1.66 2.36 0.79 0.59 1.75 0.91 2.74 0.92 0.99 0.01 1.95-0.3 2.75-0.88l16.66-12.09-1.43-8.02 5.43 5.12 6.27-4.56-17.12-19.89z"/>
		<path class="s0" d="m274.07 163.74l7.99-26.01q-3.59-3.95-7.64-7.44-4.04-3.48-8.47-6.45-4.44-2.97-9.2-5.39-4.76-2.41-9.78-4.22c13.13 21.74 0.41 50.1 5.71 74.94 0.85 3.86 2.13 7.6 3.82 11.17 1.69 3.57 3.78 6.94 6.22 10.04 2.44 3.11 5.22 5.93 8.28 8.41 3.07 2.49 6.41 4.62 9.95 6.36l12.12 15.01c3.17-5.53 5.73-11.39 7.64-17.47 1.9-6.09 3.15-12.36 3.71-18.71 0.56-6.35 0.43-12.74-0.39-19.06-0.81-6.33-2.31-12.54-4.46-18.54q-0.93-2.53-2.02-4.98-1.08-2.46-2.32-4.84-1.24-2.39-2.63-4.69-1.39-2.3-2.92-4.51c-7.2 8.46-15.61 16.38-15.61 16.38z"/>
		<path class="s0" d="m230.16 167.06l-4.45-26.84q-4.97-1.93-10.14-3.25-5.18-1.32-10.47-2-5.29-0.68-10.63-0.72-5.34-0.03-10.64 0.58c21.44 13.61 22.71 44.67 38.53 64.53 2.48 3.07 5.3 5.86 8.41 8.3 3.1 2.44 6.47 4.52 10.04 6.21 3.56 1.69 7.31 2.98 11.17 3.83 3.85 0.86 7.79 1.28 11.74 1.26l17.54 8.03c0.36-6.37 0.04-12.75-0.96-19.05-1.01-6.29-2.69-12.46-5.02-18.39-2.34-5.94-5.3-11.6-8.85-16.9-3.55-5.29-7.66-10.19-12.26-14.6q-1.96-1.84-4.03-3.56-2.07-1.71-4.24-3.29-2.18-1.58-4.44-3.03-2.27-1.44-4.63-2.73c-2.67 10.79-6.67 21.62-6.67 21.62z"/>
		<path class="s7" d="m382.99 88.24l8.2-10.25q1.04-1.31 1.53-2.92 0.48-1.61 0.32-3.28-0.16-1.67-0.93-3.16-0.77-1.49-2.04-2.58c-1.15-0.99-2.54-1.65-4.02-1.93-1.49-0.28-3.02-0.17-4.44 0.33-1.43 0.5-2.7 1.36-3.69 2.5-0.99 1.15-1.66 2.53-1.95 4.01l-2.2 11.42-8.39 22.63 10.06 5.03z"/>
		<path class="s5" d="m357.84 117.58l-16.48-35.1c-0.88-1.8-2.13-3.38-3.67-4.66-1.53-1.28-3.32-2.22-5.25-2.77-1.92-0.54-3.94-0.67-5.92-0.38-1.97 0.29-3.87 0.99-5.56 2.06-1.55 0.98-2.9 2.26-3.97 3.76-1.07 1.5-1.84 3.19-2.27 4.98-0.42 1.8-0.5 3.65-0.21 5.47 0.28 1.82 0.91 3.57 1.86 5.15l26.99 46.26q1.15 1.91 2.82 3.37 1.68 1.45 3.73 2.32 2.05 0.86 4.27 1.04 2.21 0.18 4.38-0.33 1.75-0.42 3.34-1.27 1.59-0.85 2.91-2.07 1.32-1.23 2.29-2.75 0.97-1.52 1.52-3.24l10.18-31.9-13.42-6.7z"/>
		<path class="s2" d="m388.92 106.29l-10.79-0.91q-1.27-0.11-2.4-0.69-1.13-0.59-1.96-1.56-0.82-0.98-1.21-2.19-0.39-1.22-0.28-2.49l4.15-49.52q0.11-1.27 0.69-2.4 0.59-1.13 1.56-1.96 0.98-0.82 2.19-1.21 1.22-0.38 2.49-0.28l10.79 0.9q1.27 0.11 2.4 0.7 1.13 0.58 1.96 1.56 0.82 0.97 1.21 2.18 0.39 1.22 0.28 2.49l-4.15 49.52q-0.11 1.27-0.69 2.4-0.59 1.14-1.56 1.96-0.98 0.82-2.19 1.21-1.22 0.39-2.49 0.29z"/>
		<path class="s3" d="m381.88 45.5q-0.68-0.06-1.34 0.15-0.65 0.21-1.18 0.65-0.52 0.45-0.84 1.06-0.31 0.61-0.37 1.29l-4.15 49.52q-0.06 0.69 0.15 1.34 0.21 0.66 0.65 1.18 0.45 0.53 1.06 0.84 0.61 0.32 1.29 0.38l10.79 0.9q0.69 0.06 1.34-0.15 0.66-0.21 1.18-0.65 0.53-0.45 0.84-1.06 0.32-0.61 0.38-1.29l4.15-49.52q0.05-0.69-0.15-1.34-0.21-0.66-0.66-1.18-0.44-0.53-1.05-0.84-0.61-0.32-1.3-0.38z"/>
		<path class="s7" d="m314.9 150.86h44.9v44.9h-44.9z"/>
		<path class="s5" d="m368.53 147.02c-1.33 0-2.4-1.08-2.4-2.41 0-1.33 1.07-2.4 2.4-2.4 1.33 0 2.41 1.07 2.41 2.4 0 1.33-1.08 2.41-2.41 2.41z"/>
		<path class="s8" d="m408.61 340.53h11.98l5.7-46.19h-17.68v46.19z"/>
		<path class="s5" d="m405.64 334.62l18.94-1.13v8.11l17.99 12.43c0.89 0.62 1.56 1.5 1.92 2.52 0.35 1.02 0.36 2.13 0.04 3.16-0.32 1.03-0.96 1.93-1.83 2.57-0.87 0.64-1.92 0.99-3 0.99h-22.54l-3.89-8.02-1.52 8.02h-8.49z"/>
		<path class="s8" d="m319.73 373.51l10.27 6.16 28.66-36.68-15.16-9.09-23.77 39.61z"/>
		<path class="s5" d="m320.23 366.91l16.81 8.78-4.17 6.95 9.03 19.92c0.45 0.99 0.57 2.09 0.34 3.14-0.22 1.06-0.78 2.02-1.58 2.74-0.81 0.72-1.82 1.16-2.9 1.26-1.08 0.1-2.16-0.14-3.08-0.7l-19.33-11.6 0.8-8.88-5.43 6.1-7.28-4.37z"/>
		<path class="s3" d="m78.92 369.49q-0.18 0-0.36-0.01-1.04-0.04-2.05-0.32-1-0.29-1.91-0.81-0.91-0.51-1.67-1.23-0.75-0.72-1.32-1.6-2.12-3.16-4.48-6.15-2.35-2.99-4.94-5.79-2.58-2.8-5.37-5.39-2.79-2.58-5.78-4.95c-4.83-3.86-9.87-7.44-14.75-10.91-12.58-8.95-24.43-17.38-31.01-29.02-14.35-25.39 2.55-60.76 26.68-76.62 27.06-17.79 62.66-20.58 97.1-20.94q5.37-0.06 10.75-0.06 23.26 0.01 46.49 1.07 23.23 1.07 46.39 3.18 23.17 2.12 46.21 5.29 23.04 3.17 45.91 7.37c20.3 3.75 41.54 8.34 58.61 19.47 16.97 11.06 27.28 28.49 26.27 44.39-1.46 23.22-26.08 40.56-48.49 45.1-21.36 4.32-43.55 1.4-67.04-1.69-5.18-0.69-10.55-1.39-15.85-2-57.63-6.67-165.89 13.87-170.47 14.74l-4.55 0.87-17.63 22.69q-0.59 0.78-1.35 1.4-0.75 0.62-1.63 1.05-0.88 0.43-1.83 0.65-0.95 0.22-1.93 0.22z"/>
		<path class="s1" d="m335.55 256.23h-243.58c-1.41 0-2.75-0.56-3.75-1.55-0.99-1-1.55-2.34-1.55-3.75 0-1.41 0.56-2.75 1.55-3.75 1-0.99 2.34-1.55 3.75-1.55h243.58c1.41 0 2.76 0.56 3.75 1.55 0.99 1 1.55 2.34 1.55 3.75 0 1.41-0.56 2.75-1.55 3.75-0.99 0.99-2.34 1.55-3.75 1.55z"/>
		<path class="s1" d="m335.55 288.76h-243.58c-1.41 0-2.76-0.55-3.75-1.55-1-0.99-1.56-2.34-1.56-3.74 0-1.41 0.56-2.76 1.55-3.75 0.99-1 2.34-1.56 3.75-1.56h243.59c1.41 0 2.75 0.56 3.75 1.56 0.99 0.99 1.55 2.34 1.55 3.74 0 1.41-0.56 2.75-1.55 3.75-1 0.99-2.34 1.55-3.75 1.55z"/>
		<path class="s1" d="m120.36 321.29h-28.39c-1.4 0-2.75-0.56-3.74-1.55-1-1-1.55-2.34-1.55-3.75 0-1.4 0.55-2.75 1.55-3.74 0.99-1 2.34-1.56 3.74-1.56h28.39c1.4 0 2.75 0.56 3.74 1.56 0.99 0.99 1.55 2.34 1.55 3.74 0 1.41-0.56 2.75-1.55 3.75-0.99 0.99-2.34 1.55-3.74 1.55z"/>
		<path class="s5" d="m361.39 182.91l-48.01-5.73 1.38 9.1c0 0-32.51 26.2-10.25 55.1l10.74 10.48-0.99 4.92h6.9l0.74 5.94 29.68 24.57 1.71 5.03h4.88l-2.38 5.71-22.04 51.25 18.26 8.51 33.62-64.45-8.61-19.43-30.99-39.21 47.99 18.95 0.82 4.16 4.41-0.83-0.85 6.12 9.36 48.18 19.84-2.63-2.04-59.95q-0.12-2.46-0.87-4.8-0.75-2.35-2.08-4.41-1.34-2.07-3.16-3.72-1.83-1.65-4.02-2.77c-10.17-5.22-47.73-19.73-47.73-19.73z"/>
		<path class="s2" d="m342.16 77.89l-9.04-11.62-12.89-0.56-1.29 10.93-6.39 2.95q-2.38 9.06-3.76 18.32-1.39 9.27-1.75 18.63-0.36 9.36 0.29 18.71 0.66 9.35 2.34 18.56 0.64 0.61 1.1 1.36 0.46 0.75 0.71 1.6 0.25 0.84 0.26 1.73 0.02 0.88-0.19 1.73l-0.42 1.65 0.04 0.07q0.51 0.79 0.85 1.67 0.34 0.88 0.5 1.81 0.17 0.93 0.15 1.87-0.02 0.94-0.21 1.87l-11.68 20.75c24.8 10.11 42.98-8.74 59.82-33.45l10.43-36.08z"/>
		<path class="s5" d="m369.33 144.69l2.44-24.34-32.32-47.84-1.33 0.9 31.99 47.36-2.37 23.76 1.59 0.16z"/>
		<path class="s7" d="m333.75 65.32c-13.18 0-23.84-10.66-23.84-23.84 0-13.18 10.66-23.84 23.84-23.84 13.18 0 23.84 10.66 23.84 23.84 0 13.18-10.66 23.84-23.84 23.84z"/>
		<path class="s5" d="m336.82 12.41l-2.99 0.09-1.02 0.04-11.38 0.36c-10.09 0.32-17.98 9.78-17.62 21.13-7.37 7.89-4.78 17.39 1.58 27.51q4.1 0.38 8.17 1.04 4.06 0.66 8.07 1.6 4.01 0.93 7.95 2.14 3.93 1.21 7.77 2.69l1.25-6.18 3.09 7.99q3.83 1.71 7.62 3.77c-3.32-13.5-4.94-27.01-3.29-37.6l5.21-0.17-0.18-5.7 1.95 5.65 9.45-0.3c-0.1-3.27-0.85-6.48-2.19-9.45-1.35-2.98-3.26-5.66-5.64-7.89-2.38-2.24-5.18-3.98-8.23-5.13-3.06-1.15-6.31-1.69-9.57-1.59z"/>
		<path class="s5" d="m316.24 22.45c-6.21 0-11.23-5.02-11.23-11.22 0-6.21 5.02-11.23 11.23-11.23 6.2 0 11.22 5.02 11.22 11.23 0 6.2-5.02 11.22-11.22 11.22z"/>
		<path class="s7" d="m389.99 100.24l8.2-10.25q1.04-1.31 1.53-2.92 0.48-1.61 0.32-3.28-0.16-1.67-0.93-3.16-0.77-1.49-2.04-2.58c-1.15-0.99-2.54-1.65-4.02-1.93-1.49-0.28-3.02-0.17-4.44 0.33-1.43 0.5-2.7 1.36-3.69 2.5-0.99 1.15-1.66 2.53-1.95 4.01l-2.2 11.42-8.39 22.63 10.06 5.03z"/>
		<path class="s5" d="m364.84 129.58l-16.48-35.1c-0.88-1.8-2.13-3.38-3.67-4.66-1.53-1.28-3.32-2.22-5.25-2.77-1.92-0.54-3.94-0.67-5.92-0.38-1.97 0.29-3.87 0.99-5.56 2.06-1.55 0.98-2.9 2.26-3.97 3.76-1.07 1.5-1.84 3.19-2.27 4.98-0.42 1.8-0.5 3.65-0.21 5.47 0.28 1.82 0.91 3.57 1.86 5.15l26.99 46.26q1.15 1.91 2.82 3.37 1.68 1.45 3.73 2.32 2.05 0.86 4.27 1.04 2.21 0.18 4.38-0.33 1.75-0.42 3.34-1.27 1.59-0.85 2.91-2.07 1.32-1.23 2.29-2.75 0.97-1.52 1.52-3.24l10.18-31.9-13.42-6.7z"/>
		<path class="s5" d="m711.32 462.23q-1.56 2.5-3.17 4.97-2.98 4.59-6.11 9.04 0 0.01-0.02 0.02-0.45 0.42-0.93 0.82-0.48 0.39-0.99 0.76-0.5 0.37-1.02 0.71-0.53 0.33-1.07 0.64-0.1 0.06-0.19 0.11-0.4 0.22-0.81 0.42-0.41 0.2-0.84 0.37-0.42 0.17-0.85 0.31-0.44 0.14-0.88 0.26-0.64 0.16-1.28 0.32-2.29 0.54-4.55 0.94-4.02 0.72-7.97 1.03-0.32 0.04-0.63 0.06c-10.84 0.79-21.39-0.49-32.41-2.59-5.43-1.03-10.99-2.26-16.73-3.54q-2.82-0.63-5.68-1.26-0.21-0.05-0.44-0.1-4.09-0.89-8.34-1.77c-3.58-0.73-1.75-0.78-5.58-1.45 0 0 8.84 8.98 10.31 12.87 1.64 4.79 2.94 8.58 0.2 16.46l8.49 16.67-29.52 5.01c-16.27-31.88-29.27-52.88-23.46-65.24q0.03-0.87 0.14-1.74 0.23-1.96 0.85-3.84 0.61-1.88 1.58-3.6 0.98-1.72 2.27-3.21 1.29-1.5 2.85-2.71 1.5-1.17 3.2-2.02 1.7-0.85 3.53-1.35 1.83-0.5 3.73-0.63 1.89-0.13 3.77 0.11l5.8 0.75 44.94-2.18 1.76-7.2 0.33-0.12 10.35-3.79 35.81-13.13 0.09-0.03 2.36-0.86 0.28 0.45q0.12 0.2 0.24 0.41 0.87 1.56 1.66 3.17 0.79 1.61 1.5 3.25 0.71 1.65 1.34 3.33 0.62 1.67 1.16 3.38 0.9 2.79 1.72 5.61 0.83 2.82 1.57 5.66 0.75 2.84 1.41 5.7 0.66 2.85 1.24 5.73 0.1 0.5 0.18 0.91l0.03 0.08q0.03 0.2 0.04 0.24c0.83 3.44 0.25 7.63-1.26 11.79z"/>
		<path class="s5" d="m617.12 550.99h-0.71"/>
		<path class="s6" d="m703.76 322.28l-0.26-14.35-22.74-2.65-2.38 12.12-23.9 22.46c-17 20.78-4.65 35.1-3.91 37.23l2.1 26.2 1.32 9.1-5.16 24.91 65.15 13.98c2.09-17.22-0.23-33.23-13.83-46.11l6.87-21.38q1.3-2.09 2.36-4.31 1.06-2.22 1.87-4.54 0.81-2.33 1.35-4.73 0.54-2.4 0.81-4.84l0.25-2.24c6.07-18.92 2.47-25.29-9.9-40.85z"/>
		<path class="s5" d="m735.67 277.42q0.02 0.56 0.02 1.1c-0.01 4.02-0.96 7.97-2.79 11.54-1.82 3.57-4.47 6.66-7.72 9.01-3.25 2.36-7.01 3.91-10.97 4.53-3.96 0.62-8.02 0.3-11.83-0.95l-4.67-1.52q-0.06-0.02-0.12-0.04l-7.71-2.51q-0.01-0.12-0.01-0.24 0-0.13 0-0.25 0-0.12 0.01-0.24 0-0.13 0.02-0.25c-11.49-4.9 4.39-21.03 8.34-33.14 0.61-1.89-20.48-0.48-19.48-2.09q-0.34-0.17-0.65-0.34c1.77-2.8 3.98-5.29 6.53-7.39 2.55-2.11 5.42-3.79 8.51-4.99 3.08-1.2 6.33-1.9 9.63-2.08 3.31-0.18 6.62 0.16 9.81 1.02q0.25 0.06 0.51 0.14c14.96 0.37 22.82 10.8 22.82 24.34q0 0.55-0.01 1.09-0.02 0.54-0.05 1.09-0.03 0.54-0.08 1.08-0.05 0.55-0.11 1.09z"/>
		<path class="s4" d="m722.7 282.75c-0.99 3.05-2.58 5.86-4.66 8.3-2.09 2.43-4.63 4.43-7.48 5.88-2.86 1.45-5.97 2.33-9.17 2.57-3.19 0.25-6.4-0.13-9.45-1.12q-1.04-0.35-2.04-0.78c-2.78-1.19-5.31-2.88-7.46-4.99-2.16-2.12-3.9-4.61-5.15-7.36-1.25-2.75-1.97-5.71-2.14-8.72-0.16-3.02 0.23-6.03 1.17-8.9q0.22-0.7 0.49-1.37 0.26-0.68 0.57-1.34 0.3-0.66 0.65-1.29 0.34-0.64 0.73-1.26c3.13-5.08 8.02-8.83 13.74-10.55 5.71-1.71 11.86-1.27 17.27 1.24 5.42 2.51 9.72 6.92 12.11 12.39 2.38 5.47 2.67 11.63 0.82 17.3z"/>
		<path class="s5" d="m697.7 301.13q-0.01 0-0.03-0.01-0.01 0-0.03-0.01-0.01 0-0.03-0.01-0.01 0-0.03-0.01l-7.7-2.51c-0.02-0.33-14.16 9.03-14.12 8.7 0.22-2.53 16.15-14.87 18.53-17.74 1.54-1.83 2.61-4.01 3.12-6.35 0.51-2.34 0.44-4.77-0.2-7.07-0.63-2.31-1.82-4.43-3.46-6.17-1.64-1.75-3.68-3.07-5.94-3.85q-0.02-0.01-0.05-0.01-0.02-0.01-0.05-0.02-0.02-0.01-0.05-0.02-0.02-0.01-0.05-0.02-2.24-0.78-4.26-1.58c-0.66-2.75-1-1.84-2.59-4.17 0.29 2.12-2.4 3.72-2.44 5.86q-0.82-0.38-1.57-0.77-0.33-0.18-0.64-0.34-0.57-0.27-1.11-0.6-0.55-0.34-1.04-0.73-0.5-0.4-0.94-0.85-0.45-0.46-0.84-0.96c3.85-11.83 18.58-21.3 30.41-17.43l4.47 1.45q2.1 0.68 4.02 1.75 1.92 1.08 3.6 2.5 1.67 1.43 3.04 3.16 1.37 1.72 2.37 3.68 1.22 0.93 2.32 2.01 1.09 1.07 2.05 2.27 0.96 1.2 1.76 2.51 0.81 1.31 1.45 2.7c9.78 19.65-9.11 41.34-29.97 34.64z"/>
		<path class="s5" d="m730.05 268.25c-5.87 0-10.61-4.74-10.61-10.61 0-5.86 4.74-10.6 10.61-10.6 5.86 0 10.6 4.74 10.6 10.6 0 5.87-4.74 10.61-10.6 10.61z"/>
		<path class="s5" d="m864.76 279.27c-1.12 5.09-2.8 10.04-5.02 14.76-2.21 4.72-4.95 9.18-8.15 13.3-3.2 4.11-6.85 7.86-10.87 11.17-4.03 3.31-8.42 6.16-13.08 8.5q-1.79 0.89-3.62 1.65 0.04-1.84-0.2-3.67-0.24-1.83-0.76-3.6-0.52-1.77-1.3-3.44-0.78-1.67-1.81-3.2 0.17 1.25 0.26 2.5 0.1 1.26 0.12 2.52 0.02 1.25-0.04 2.51-0.05 1.26-0.18 2.51-0.07 0.72-0.16 1.43-0.1 0.72-0.22 1.43-0.11 0.71-0.26 1.42-0.14 0.71-0.31 1.41-2.93 0.97-5.94 1.68-3.01 0.7-6.07 1.14-3.06 0.45-6.15 0.62-3.09 0.17-6.18 0.07-0.17-1.37-0.51-2.71-0.33-1.34-0.82-2.64-0.49-1.29-1.13-2.52-0.63-1.22-1.41-2.37 0.17 1.25 0.26 2.5 0.1 1.26 0.12 2.52 0.02 1.25-0.04 2.51-0.05 1.26-0.18 2.51-3.1-0.25-6.17-0.78-3.07-0.53-6.08-1.34-3.01-0.81-5.94-1.88-2.92-1.08-5.74-2.41c-3.91-1.86-7.75-4.19-10.27-7.71-3.35-4.69-3.91-10.88-3.09-16.58 0.82-5.71 2.87-11.16 4.3-16.74 1.43-5.58 2.24-11.55 0.56-17.06-1.67-5.52-6.36-10.43-12.11-10.86-2.62-0.2-5.25 0.52-7.87 0.28-2.62-0.25-5.46-2-5.52-4.63l2.51-4.08c1.06-7.14 4.7-14.22 10.94-17.85 6.23-3.64 15.19-2.86 19.64 2.82 3.75 4.78 3.61 11.42 4.84 17.37 2.86 13.82 13.91 24.94 26.75 30.8 12.85 5.85 27.31 7.08 41.43 6.84 4.84-0.09 9.76-0.35 14.36-1.88 4.61-1.54 8.91-4.5 11.11-8.82z"/>
		<path class="s2" d="m624.28 343l-4.15-49.52q-0.11-1.27 0.28-2.49 0.39-1.21 1.21-2.19 0.83-0.97 1.96-1.56 1.13-0.58 2.4-0.69l10.79-0.91q1.28-0.1 2.49 0.29 1.21 0.39 2.19 1.21 0.97 0.82 1.56 1.96 0.58 1.13 0.69 2.4l4.15 49.52q0.11 1.27-0.28 2.49-0.39 1.21-1.21 2.19-0.83 0.97-1.96 1.55-1.13 0.59-2.4 0.7l-10.79 0.9q-1.27 0.11-2.49-0.28-1.21-0.39-2.19-1.21-0.97-0.83-1.56-1.96-0.58-1.13-0.69-2.4z"/>
		<path class="s3" d="m627.46 288.97q-0.69 0.06-1.3 0.37-0.61 0.32-1.05 0.84-0.45 0.53-0.66 1.18-0.2 0.66-0.15 1.34l4.15 49.52q0.06 0.69 0.38 1.3 0.31 0.61 0.84 1.05 0.52 0.45 1.18 0.66 0.65 0.2 1.34 0.15l10.79-0.91q0.68-0.06 1.29-0.37 0.61-0.32 1.06-0.84 0.44-0.53 0.65-1.18 0.21-0.65 0.15-1.34l-4.15-49.52q-0.06-0.68-0.37-1.3-0.32-0.61-0.84-1.05-0.53-0.44-1.18-0.65-0.66-0.21-1.34-0.16z"/>
		<path class="s4" d="m645.65 359.99l10.51-4.01-6.1-23.35-1.07-11.58c-0.14-1.5-0.67-2.95-1.54-4.18-0.87-1.23-2.05-2.22-3.42-2.85-1.37-0.64-2.88-0.91-4.39-0.77-1.5 0.13-2.95 0.65-4.19 1.52q-1.37 0.96-2.29 2.37-0.91 1.4-1.23 3.05-0.32 1.65-0.01 3.3 0.32 1.64 1.24 3.05l7.14 11.01z"/>
		<path class="s6" d="m656.58 351.81l-14.01 5.35 6.97 32.74q0.38 1.76 1.19 3.37 0.81 1.61 2 2.96 1.2 1.35 2.7 2.36 1.49 1 3.2 1.59 2.1 0.72 4.32 0.76 2.23 0.04 4.35-0.61 2.12-0.66 3.94-1.94 1.81-1.29 3.14-3.07l31.44-43.37c1.1-1.47 1.9-3.15 2.36-4.93 0.46-1.79 0.57-3.64 0.33-5.47-0.25-1.82-0.85-3.58-1.76-5.18-0.92-1.6-2.14-3-3.59-4.14-1.57-1.23-3.39-2.11-5.33-2.6-1.94-0.48-3.96-0.55-5.93-0.2-1.97 0.35-3.84 1.11-5.5 2.23-1.65 1.12-3.05 2.58-4.11 4.28l-19.86 33.3z"/>
		<path class="s9" d="m645.18 369.44l7.08 28.76 1.47 1.78c1.17 1.42 2.65 2.54 4.34 3.26 1.68 0.72 3.52 1.03 5.34 0.89 1.83-0.13 3.6-0.7 5.16-1.66 1.57-0.96 2.87-2.28 3.82-3.85l22.44-37.32-20.23 28c-1.14 1.57-2.65 2.83-4.4 3.65-1.76 0.83-3.69 1.19-5.62 1.07-1.94-0.13-3.81-0.74-5.44-1.79-1.63-1.04-2.97-2.48-3.89-4.19z"/>
	</g>
</svg>