<svg version="1.2" xmlns="http://www.w3.org/2000/svg" viewBox="0 0 80 80" width="80" height="80">
	<style>
		tspan { white-space:pre } 
		.s0 { fill: none;stroke: #000000;stroke-linecap: round;stroke-linejoin: round;stroke-width: 4 } 
		.t1 { font-size: 24px;fill: #000000;font-weight: 400;font-family: "Kablammo-Zoink", "Kablammo" } 
		.t2 { font-size: 24px;fill: #000000;font-weight: 400;font-family: "Kablammo-Eek", "Kablammo" } 
	</style>
	<g id="maker">
		<path class="s0" d="m50.68 19.23q0.62 0.15 1.24 0.32 0.61 0.16 1.22 0.35 0.61 0.19 1.21 0.4 0.61 0.2 1.2 0.43"/>
		<path class="s0" d="m27.23 19.79q1.55-0.45 3.14-0.79 1.58-0.34 3.18-0.57 1.6-0.23 3.22-0.34 1.61-0.11 3.23-0.1 2.04 0 4.01 0.17"/>
		<path class="s0" d="m5 34.99v12.84q0 1.45 0.32 2.86 0.31 1.42 0.93 2.72 0.62 1.31 1.51 2.45 0.9 1.14 2.02 2.06c7.63 6.22 18.35 10.09 30.22 10.09 11.87 0 22.59-3.87 30.22-10.1q1.12-0.91 2.02-2.05 0.89-1.14 1.51-2.45 0.62-1.3 0.93-2.72 0.32-1.41 0.32-2.86v-12.84"/>
		<path class="s0" d="m40 67.99v-10"/>
		<path class="s0" d="m40 57.99c-19.36 0-35-10.28-35-23 0-12.72 15.64-23 35-23 19.36 0 35 10.28 35 23 0 12.72-15.64 23-35 23z"/>
		<path class="s0" d="m51.67 66.72v-9.24"/>
		<path class="s0" d="m63.33 62.45v-10.32"/>
		<path class="s0" d="m28.33 66.72v-9.43"/>
		<path class="s0" d="m16.67 62.45v-9.66"/>
		<text id="gg" style="transform: matrix(1,0,0,1,25,42)" >
			<tspan x="0" y="0" class="t1">g</tspan><tspan  y="0" class="t2">g
</tspan>
		</text>
	</g>
</svg>